<?xml version="1.0" standalone="no"?>
<!DOCTYPE svg PUBLIC "-//W3C//DTD SVG 20010904//EN"
 "http://www.w3.org/TR/2001/REC-SVG-20010904/DTD/svg10.dtd">
<svg version="1.0" xmlns="http://www.w3.org/2000/svg"
 width="1200.000000pt" height="1200.000000pt" viewBox="0 0 1200.000000 1200.000000"
 preserveAspectRatio="xMidYMid meet">

<g transform="translate(0.000000,1200.000000) scale(0.100000,-0.100000)"
fill="#000000" stroke="none">
<path d="M6010 10978 c-110 -28 -241 -32 -428 -14 -146 14 -175 14 -280 1
-137 -18 -234 -45 -317 -88 -81 -42 -240 -201 -282 -282 -36 -69 -63 -155 -63
-200 0 -28 -5 -33 -66 -59 -96 -42 -165 -110 -214 -210 -36 -73 -41 -94 -56
-226 -9 -80 -17 -213 -19 -297 -2 -141 -4 -155 -28 -205 -15 -30 -44 -73 -65
-96 l-39 -42 31 -19 c42 -26 226 -115 264 -129 22 -8 33 -19 37 -39 3 -15 14
-49 24 -74 l18 -46 -65 -6 c-93 -7 -186 -56 -229 -121 -43 -64 -57 -117 -50
-196 8 -86 20 -124 59 -189 61 -101 167 -151 319 -152 l85 0 12 -68 c25 -150
97 -325 184 -454 161 -237 434 -387 704 -387 l64 0 0 -63 c0 -60 -2 -65 -37
-99 -37 -35 -42 -37 -168 -53 -71 -9 -202 -20 -290 -24 -240 -12 -258 -25
-384 -284 -160 -328 -526 -947 -560 -947 -7 0 -34 15 -60 34 -56 42 -260 246
-246 246 6 1 64 2 130 3 l119 2 97 715 c54 393 100 730 103 748 l5 32 -539 0
c-504 0 -539 -1 -544 -17 -3 -10 -28 -151 -56 -313 -28 -162 -82 -470 -120
-685 -37 -214 -71 -409 -75 -432 l-7 -43 159 0 158 0 17 -28 c10 -15 170 -216
356 -447 383 -475 376 -469 498 -469 60 0 81 5 130 29 56 29 73 49 413 485
312 402 353 450 347 415 -3 -22 -42 -314 -86 -650 -87 -668 -88 -676 -37 -783
22 -47 87 -119 142 -158 l30 -21 6 -204 c4 -112 8 -321 8 -464 l1 -261 -97 3
c-143 5 -256 21 -339 48 -41 12 -76 20 -78 16 -1 -3 -9 -28 -16 -56 -7 -27
-14 -51 -15 -52 0 -1 -52 13 -115 32 -63 18 -115 33 -116 32 0 -1 -40 -105
-89 -232 -48 -126 -126 -329 -172 -450 -47 -121 -85 -236 -86 -256 -2 -44 14
-65 54 -74 69 -15 166 100 281 332 38 79 74 143 79 143 5 0 9 -1 9 -3 0 -15
95 -215 115 -241 80 -105 280 -179 393 -146 30 8 33 7 27 -8 -4 -9 -72 -188
-150 -397 -79 -209 -172 -444 -208 -522 l-65 -142 92 -36 c50 -20 92 -38 94
-40 2 -2 -11 -36 -28 -75 -16 -40 -29 -74 -28 -76 2 -1 91 -34 198 -72 107
-39 335 -121 505 -182 500 -181 473 -172 551 -174 84 -1 114 17 114 68 0 65
-71 138 -231 239 l-92 57 46 0 46 0 18 57 c22 72 25 282 5 360 l-14 52 58 67
c152 180 255 385 337 673 l33 115 97 17 c180 32 335 97 464 196 230 175 384
465 400 753 7 136 -19 499 -66 918 l-17 153 32 20 c46 28 103 94 125 144 11
25 24 89 30 150 12 120 2 208 -71 616 -108 605 -159 942 -160 1053 0 76 36
162 268 636 44 91 103 224 130 295 56 149 503 1310 585 1520 30 77 51 142 46
145 -5 3 7 55 26 115 19 61 35 116 35 123 0 6 -11 12 -25 12 -30 0 -30 -3 -1
90 16 51 28 74 37 71 91 -23 97 -19 200 159 107 185 101 214 -55 296 l-94 49
1 44 c0 38 -5 49 -32 73 -45 40 -100 39 -135 -3 -14 -17 -26 -34 -26 -37 0 -4
-13 -14 -28 -23 -18 -10 -54 -62 -105 -150 -84 -147 -95 -193 -59 -240 18 -24
18 -26 -16 -132 l-35 -107 -32 6 -32 6 -43 -116 c-32 -87 -47 -116 -60 -116
-10 0 -20 -8 -22 -17 -3 -10 -162 -378 -353 -818 l-348 -800 -186 -194 c-102
-106 -215 -226 -251 -266 l-65 -72 -31 23 c-30 23 -30 25 -33 121 l-2 98 53
18 c395 138 599 456 574 892 -3 61 -13 150 -21 200 -8 49 -13 90 -12 91 1 1
28 19 59 41 125 84 169 194 137 345 -16 72 -51 139 -93 176 -39 34 -119 62
-178 62 -43 0 -46 5 -19 34 48 54 64 223 37 404 -36 241 -102 375 -196 399
l-35 9 -6 140 c-7 150 -30 241 -74 299 -52 70 -187 115 -344 115 -86 0 -97 2
-130 27 -20 14 -37 27 -39 29 -2 1 8 14 22 29 15 16 31 44 37 64 12 41 9 103
-6 107 -5 1 -44 -7 -85 -18z m2152 -655 c10 -9 18 -27 18 -40 l0 -23 -50 25
c-35 18 -48 29 -44 40 8 20 53 19 76 -2z m-68 -66 c16 -12 16 -16 -8 -79 -25
-68 -25 -78 3 -78 11 0 24 22 39 64 l23 65 34 -20 34 -20 -20 -51 c-11 -28
-24 -59 -29 -69 -16 -28 -12 -49 9 -49 11 0 23 9 26 21 4 12 18 46 31 75 l24
55 30 -18 c17 -9 30 -20 30 -24 0 -4 -11 -37 -25 -73 -30 -80 -30 -82 -6 -89
15 -4 23 8 43 67 14 39 31 71 38 71 8 0 19 -14 26 -31 12 -30 10 -36 -62 -160
-40 -71 -78 -136 -83 -144 -9 -13 -16 -13 -62 3 -61 22 -58 25 -90 -87 -12
-45 -25 -85 -29 -89 -7 -8 -218 40 -232 52 -4 4 8 56 27 116 41 129 41 136 15
153 -35 22 -25 64 47 190 91 159 119 184 167 149z m-1823 -402 c185 -39 342
-173 447 -381 42 -83 52 -128 121 -529 71 -411 85 -528 76 -650 -26 -365 -210
-607 -547 -721 l-78 -26 -1 -136 0 -137 -102 -164 c-56 -90 -106 -164 -110
-165 -4 -1 -102 73 -217 164 l-210 165 2 74 3 74 -85 -2 c-272 -5 -537 137
-697 374 -116 171 -148 277 -227 732 -83 482 -79 431 -41 443 37 12 90 64 104
103 6 16 11 53 11 83 0 246 160 464 403 550 102 36 547 131 718 153 113 15
351 12 430 -4z m1667 -277 c92 -22 168 -42 170 -44 8 -5 -53 -186 -63 -191
-11 -3 -352 81 -361 90 -8 8 62 187 74 187 7 0 88 -19 180 -42z m-95 -237
c108 -26 200 -50 202 -53 3 -3 -94 -263 -216 -579 -121 -316 -266 -691 -320
-834 -123 -321 -115 -303 -217 -515 -126 -261 -226 -479 -247 -533 -32 -85
-15 -243 91 -852 123 -708 124 -715 125 -835 0 -182 -18 -238 -99 -311 -81
-72 -217 -132 -423 -184 -88 -23 -323 -65 -360 -65 -14 0 -17 35 -22 308 -11
538 -63 1068 -135 1379 l-19 81 45 106 45 107 46 -71 c25 -38 48 -70 51 -70 6
0 344 577 348 594 1 7 -65 61 -148 120 -83 60 -153 112 -155 116 -3 5 108 126
245 269 l251 261 120 277 c67 153 143 328 169 388 77 176 376 866 393 908 9
20 20 37 24 37 4 0 97 -22 206 -49z m-916 -56 c63 -19 113 -71 139 -146 21
-63 24 -167 5 -221 -14 -42 -83 -118 -128 -142 l-30 -15 -18 105 -17 106 54
48 c52 47 52 49 33 64 -28 21 -38 20 -65 -9 -13 -14 -27 -25 -30 -25 -4 0 -15
48 -24 108 -10 59 -20 115 -22 125 -7 22 32 23 103 2z m-2367 -507 c12 -73 25
-138 27 -145 8 -22 -37 -1 -74 33 -30 29 -38 31 -59 22 -13 -6 -24 -14 -24
-18 0 -21 87 -92 126 -102 l42 -12 19 -110 19 -111 -64 -3 c-190 -9 -313 84
-342 258 -32 187 75 314 266 319 l41 1 23 -132z m-290 -1132 c0 -2 -43 -317
-95 -700 -52 -383 -95 -701 -95 -708 0 -8 -38 -9 -132 -5 -73 4 -134 7 -135 7
-1 0 1 33 4 73 4 55 1 87 -11 125 l-17 51 -152 1 c-84 0 -190 7 -237 14 -82
13 -86 13 -103 -6 -40 -47 -57 -175 -32 -240 7 -17 -3 -18 -114 -18 -90 0
-121 3 -121 13 0 6 54 320 120 697 66 377 120 688 120 693 0 4 225 7 500 7
275 0 500 -2 500 -4z m2250 -511 c91 -65 167 -120 169 -121 3 -3 -59 -111
-246 -432 l-55 -93 -140 209 -140 209 113 182 c75 121 116 178 123 172 6 -4
85 -61 176 -126z m-672 -66 c111 -88 202 -164 202 -168 0 -6 -270 -409 -312
-465 -13 -17 -28 -2 -211 218 l-198 237 23 28 c31 40 282 309 288 310 3 0 96
-71 208 -160z m-463 -52 c-59 -63 -107 -118 -107 -122 0 -3 96 -122 214 -263
117 -141 218 -262 224 -270 9 -12 27 9 94 107 45 66 86 121 89 121 4 0 30 -56
59 -124 l53 -123 -16 -129 c-36 -285 -118 -639 -216 -940 -106 -326 -129 -487
-90 -647 11 -49 21 -90 21 -93 0 -8 -217 -4 -297 6 -193 24 -317 74 -392 156
-87 95 -99 180 -62 449 51 372 160 1209 158 1211 -1 2 -178 -222 -392 -498
-234 -301 -404 -510 -425 -524 -71 -47 -173 -53 -236 -15 -16 10 -157 177
-313 372 -156 195 -291 362 -300 372 -14 17 -13 17 13 8 84 -33 197 -1 274 76
l54 54 131 -135 c202 -205 248 -230 304 -162 85 104 430 703 549 952 35 73 77
148 95 168 54 62 76 68 264 78 93 4 211 14 260 21 50 7 92 12 94 11 2 -2 -45
-54 -104 -117z m875 -423 c0 -7 -21 -60 -46 -117 l-46 -103 -52 7 c-28 4 -58
8 -67 8 -9 1 -22 16 -29 34 -7 17 -31 74 -53 125 l-39 92 77 115 78 114 89
-131 c48 -72 88 -137 88 -144z m-2731 -145 c64 -6 141 -8 172 -5 l57 7 11 -32
c49 -141 -55 -298 -208 -316 -101 -12 -221 62 -252 155 -16 48 -16 127 0 176
l13 38 45 -6 c25 -3 98 -11 162 -17z m2637 -121 c7 -8 63 -305 74 -393 6 -50
13 -99 16 -110 5 -24 22 -201 34 -370 20 -265 25 -405 25 -735 l0 -345 -40
-85 c-117 -248 -198 -360 -260 -360 -45 0 -97 87 -160 270 -81 232 -145 487
-145 583 0 78 52 318 99 457 106 309 191 674 226 962 8 69 15 130 15 134 0 7
108 -1 116 -8z"/>
<path d="M6275 9423 c-78 -18 -202 -61 -267 -94 -86 -43 -98 -65 -53 -95 32
-21 71 -14 167 30 41 18 107 45 148 60 96 34 118 45 125 65 12 32 -50 50 -120
34z"/>
<path d="M6217 9280 c-152 -39 -279 -180 -294 -327 -7 -60 -5 -59 -81 -68 -45
-5 -53 -3 -58 12 -34 101 -108 188 -196 232 -45 23 -55 31 -37 31 38 0 69 27
69 60 0 38 -16 42 -154 43 -129 1 -252 -18 -295 -44 -61 -37 -24 -75 63 -65
l51 6 -47 -23 c-112 -56 -184 -147 -214 -271 -43 -173 49 -362 216 -440 154
-72 352 -33 461 92 49 56 91 153 97 228 l5 64 38 2 c22 1 49 2 60 2 17 1 24
-8 34 -40 16 -56 78 -147 125 -184 200 -159 493 -93 606 135 27 55 29 69 29
170 0 101 -2 115 -29 170 -64 130 -191 214 -334 221 -42 2 -94 -1 -115 -6z
m228 -84 c72 -33 129 -87 162 -154 24 -50 28 -69 28 -147 0 -73 -5 -99 -23
-136 -37 -74 -87 -125 -158 -160 -83 -41 -177 -45 -265 -10 -205 79 -275 338
-139 510 95 120 258 160 395 97z m-897 -115 c66 -34 128 -97 159 -160 39 -80
39 -192 2 -272 -36 -76 -90 -133 -157 -166 -49 -24 -69 -28 -142 -28 -71 0
-94 4 -141 26 -69 33 -127 89 -160 155 -20 41 -24 64 -24 145 0 86 3 101 30
154 36 70 105 131 177 157 73 26 195 21 256 -11z"/>
<path d="M6106 9035 c-49 -17 -108 -73 -104 -99 5 -34 26 -29 78 20 58 54 85
58 130 20 36 -30 48 -32 57 -10 8 21 -33 62 -76 74 -43 12 -37 12 -85 -5z"/>
<path d="M5394 8930 c-60 -34 -96 -75 -92 -104 5 -37 35 -29 97 28 73 67 107
73 161 26 39 -33 52 -36 69 -16 15 18 -16 58 -63 80 -53 25 -113 20 -172 -14z"/>
<path d="M5847 8688 c-7 -109 5 -241 23 -263 7 -9 22 -21 32 -26 50 -27 60 43
32 223 -18 114 -35 158 -63 158 -16 0 -19 -12 -24 -92z"/>
<path d="M5891 8268 c-193 -24 -326 -44 -347 -54 -69 -33 -89 -111 -63 -236
21 -98 85 -189 169 -240 43 -26 122 -48 171 -48 96 0 283 30 336 55 150 68
228 220 203 394 -11 81 -18 96 -52 128 -44 42 -81 42 -417 1z m289 -51 l0 -42
-242 -29 c-134 -15 -255 -30 -270 -33 -27 -5 -28 -4 -28 36 0 22 1 41 3 42 1
0 119 16 262 34 143 18 263 33 268 34 4 1 7 -18 7 -42z m100 16 c26 -24 32
-38 39 -98 4 -38 6 -87 3 -107 -3 -32 -7 -37 -26 -34 -98 20 -215 11 -292 -23
-38 -17 -47 -18 -81 -6 -42 15 -96 8 -173 -21 -86 -32 -194 -54 -202 -41 -16
24 -29 84 -35 154 -6 70 -5 72 25 102 45 46 58 41 65 -25 3 -31 8 -59 11 -62
5 -4 455 46 578 65 l37 5 -6 59 c-5 50 -3 59 10 59 9 0 30 -12 47 -27z m0
-281 c0 -5 -13 -27 -29 -49 -53 -73 -144 -125 -262 -149 -98 -20 -200 -8 -282
31 -66 31 -120 74 -94 75 9 0 65 16 124 35 119 39 167 43 195 18 18 -16 21
-16 47 0 16 9 53 23 82 31 59 16 219 21 219 8z"/>
<path d="M4004 7461 c-28 -17 -31 -24 -28 -60 1 -23 -1 -41 -5 -41 -10 0 -1
-69 10 -76 5 -3 9 9 9 27 l0 31 28 -17 c15 -10 33 -24 39 -33 7 -9 16 -13 19
-9 7 6 -34 50 -57 61 -10 4 -11 8 -2 12 60 28 85 92 44 114 -25 13 -20 13 -57
-9z m62 -15 c8 -21 -10 -48 -45 -69 l-31 -18 0 41 c0 33 4 42 23 50 32 13 47
12 53 -4z"/>
<path d="M3556 7463 c-11 -3 -14 -8 -9 -12 8 -4 7 -28 -2 -74 -13 -70 -11
-107 7 -107 6 0 8 10 5 22 -12 43 2 66 44 73 56 10 60 26 4 18 l-46 -6 7 29
c10 43 12 44 55 44 21 0 39 5 39 10 0 10 -69 12 -104 3z"/>
<path d="M3696 7463 c-11 -3 -14 -8 -9 -12 8 -4 7 -28 -2 -74 -13 -69 -11
-107 7 -107 5 0 8 8 7 18 -6 59 0 69 40 76 58 9 63 27 6 19 l-46 -6 7 29 c10
43 12 44 55 44 21 0 39 5 39 10 0 10 -69 12 -104 3z"/>
<path d="M3858 7458 c-29 -10 -36 -24 -18 -30 7 -2 5 -17 -5 -41 -21 -51 -4
-91 40 -95 31 -3 75 21 63 34 -5 4 -16 0 -27 -10 -23 -21 -71 -6 -71 23 0 19
25 31 67 31 12 0 25 5 29 12 5 8 -6 9 -40 5 -43 -6 -47 -5 -41 11 4 9 10 25
12 35 4 12 16 17 39 17 19 0 34 5 34 10 0 13 -46 12 -82 -2z"/>
<path d="M3376 7426 c-56 -52 -45 -106 24 -127 33 -10 43 -9 64 5 40 26 50 53
37 97 -20 67 -70 77 -125 25z m103 -17 c30 -55 -18 -114 -76 -93 -34 12 -47
35 -39 67 7 29 50 58 81 54 10 -1 26 -14 34 -28z"/>
<path d="M4107 7148 c-13 -18 -27 -42 -31 -53 -7 -19 -8 -19 -25 4 -11 15 -21
20 -25 13 -4 -6 7 -26 23 -44 l29 -32 22 52 c12 28 28 57 36 63 8 6 14 15 14
20 0 19 -20 8 -43 -23z"/>
<path d="M3368 7113 c-21 -2 -38 -8 -38 -14 0 -5 62 -9 148 -9 108 0 176 -5
259 -21 69 -13 125 -19 147 -15 59 11 41 25 -31 25 -38 0 -97 7 -133 16 -64
16 -281 27 -352 18z"/>
<path d="M3993 6880 c-21 -33 -41 -60 -45 -60 -4 0 -10 9 -13 20 -6 19 -35 29
-35 11 0 -15 41 -61 55 -61 11 0 95 127 95 144 0 21 -25 -3 -57 -54z"/>
<path d="M3300 6883 c0 -6 24 -17 53 -25 41 -11 96 -14 260 -10 114 2 207 8
207 13 0 9 -49 12 -295 13 -82 1 -167 5 -187 10 -25 5 -38 5 -38 -1z"/>
<path d="M3333 6708 c-24 -5 -43 -13 -43 -19 0 -12 12 -11 81 3 47 10 67 9
120 -5 35 -8 117 -18 182 -21 100 -5 117 -4 117 9 0 12 -19 15 -108 15 -64 0
-131 6 -165 15 -64 17 -121 18 -184 3z"/>
<path d="M3964 6642 l-21 -67 -18 43 c-18 43 -35 55 -35 25 0 -26 40 -103 54
-103 7 0 23 33 35 73 13 39 26 78 28 85 3 6 -1 12 -8 12 -8 0 -23 -28 -35 -68z"/>
<path d="M8768 7735 c-70 -17 -178 -66 -197 -88 -16 -20 -8 -47 14 -47 9 0 30
7 47 16 16 9 29 12 27 7 -2 -4 -18 -35 -35 -68 -17 -33 -44 -94 -59 -135 -52
-145 -18 -283 84 -337 99 -52 234 -14 282 79 23 45 24 64 4 72 -10 4 -34 -14
-70 -52 l-54 -57 -65 0 c-60 0 -68 3 -100 34 -36 35 -60 107 -50 148 7 27 201
78 256 68 47 -9 101 24 96 59 -3 19 -8 21 -58 18 -30 -1 -103 -15 -162 -30
-60 -16 -108 -25 -108 -20 0 5 20 52 46 105 26 56 44 107 42 121 -3 23 2 28
42 40 25 8 79 15 120 16 67 1 75 3 78 22 6 42 -72 55 -180 29z"/>
<path d="M7982 7728 c-18 -18 -15 -27 29 -91 23 -33 63 -107 89 -166 26 -58
54 -120 63 -137 15 -29 14 -35 -14 -116 -40 -117 -48 -177 -24 -194 27 -20 59
0 51 33 -17 65 154 482 250 610 32 42 32 73 1 73 -17 0 -34 -14 -56 -45 -32
-45 -151 -285 -151 -305 0 -28 -19 -3 -44 58 -52 127 -151 292 -175 292 -4 0
-12 -5 -19 -12z"/>
<path d="M9288 7726 c-8 -8 -38 -26 -67 -40 -106 -54 -161 -125 -161 -209 0
-60 25 -89 114 -133 90 -46 116 -69 116 -107 0 -70 -84 -130 -185 -131 -54 -1
-60 -3 -63 -23 -11 -75 203 -38 269 45 27 35 43 94 35 135 -9 47 -44 80 -130
120 -39 19 -78 42 -86 52 -19 23 -18 77 3 108 24 37 101 88 172 113 46 17 61
27 63 44 6 37 -51 56 -80 26z"/>
<path d="M9915 7710 c-23 -25 -42 -158 -52 -353 l-6 -139 24 4 c27 3 30 18 43
198 4 52 16 139 27 193 11 54 17 102 14 107 -10 16 -31 11 -50 -10z"/>
<path d="M9841 7098 c-11 -31 -2 -58 25 -70 35 -16 54 -4 54 36 0 25 -6 38
-19 46 -31 16 -51 12 -60 -12z"/>
<path d="M9695 6224 c-181 -19 -332 -38 -335 -43 -3 -5 -126 -138 -275 -295
-148 -158 -270 -290 -270 -294 0 -14 239 -642 245 -642 3 0 111 113 240 252
269 289 515 553 542 584 19 22 19 22 -41 69 l-60 47 155 179 c85 99 149 179
142 178 -7 -1 -161 -17 -343 -35z m190 -91 c-108 -127 -169 -193 -177 -193 -4
0 -67 48 -139 107 l-131 107 223 23 c123 12 235 24 249 25 14 2 27 2 29 1 2
-1 -23 -33 -54 -70z m-291 -163 c105 -85 194 -158 200 -162 5 -3 -30 -48 -78
-100 -48 -51 -212 -227 -364 -390 -152 -163 -278 -296 -280 -294 -1 2 -50 128
-107 281 -102 269 -104 277 -87 299 64 81 506 534 516 529 6 -4 96 -77 200
-163z"/>
<path d="M8204 4823 c-120 -126 -268 -278 -327 -339 l-108 -111 16 -106 c21
-142 75 -359 131 -525 25 -75 47 -138 49 -140 1 -2 10 18 19 43 8 26 37 77 63
113 52 73 303 330 453 463 52 46 94 91 93 99 -1 8 -13 46 -28 84 -28 75 -95
394 -116 550 -7 53 -15 96 -19 96 -3 0 -105 -102 -226 -227z m257 -173 c17
-85 43 -195 59 -243 l28 -89 -41 -36 c-232 -205 -424 -401 -500 -508 l-40 -57
-24 74 c-66 206 -129 491 -121 551 2 19 84 111 293 328 l290 302 12 -83 c7
-46 27 -154 44 -239z"/>
<path d="M3300 4103 c-14 -2 -95 -15 -180 -29 -196 -32 -326 -62 -339 -78 -9
-10 78 -106 370 -410 210 -219 387 -395 393 -393 6 3 90 58 186 122 96 65 199
129 229 143 l55 25 -105 100 c-57 56 -204 197 -325 314 -140 135 -228 213
-240 212 -11 -1 -30 -4 -44 -6z m344 -321 l296 -284 -82 -50 c-45 -27 -134
-85 -198 -129 l-116 -80 -120 123 c-218 223 -579 600 -582 608 -2 5 32 16 74
26 82 18 414 73 426 71 4 -1 140 -130 302 -285z"/>
<path d="M1670 3230 c145 -290 290 -643 290 -708 0 -23 -11 -21 225 -47 417
-47 744 -122 852 -196 l45 -31 -7 33 c-15 70 -127 401 -176 520 -28 68 -75
172 -105 230 l-54 106 -53 11 c-28 6 -257 50 -507 97 -250 47 -477 90 -503 95
-26 6 -52 10 -58 10 -5 0 18 -54 51 -120z m1026 -125 c22 -5 123 -204 187
-370 48 -125 130 -375 125 -381 -3 -2 -44 10 -93 26 -149 50 -464 108 -765
140 -154 17 -148 14 -160 63 -25 100 -110 305 -221 536 -43 90 -79 167 -79
171 0 4 879 -157 1006 -185z"/>
<path d="M9160 3108 c-327 -82 -596 -151 -598 -153 -3 -2 7 -38 21 -79 l26
-76 -49 -14 c-27 -8 -132 -38 -234 -67 -102 -29 -186 -55 -186 -58 0 -3 142
-79 315 -168 l315 -161 207 50 c115 28 305 74 423 103 l215 52 31 139 c53 235
124 563 124 574 0 5 -3 10 -7 9 -5 0 -276 -68 -603 -151z m491 -222 c-56 -259
-71 -311 -87 -317 -28 -12 -775 -191 -778 -187 -7 9 -174 543 -171 546 7 7
1100 277 1102 272 1 -3 -28 -144 -66 -314z m-974 -301 c29 -93 53 -173 53
-177 0 -9 -480 233 -480 242 0 6 352 108 364 106 5 -1 33 -78 63 -171z"/>
<path d="M4370 600 l0 -130 63 0 c34 0 73 6 87 13 52 26 77 126 45 187 -24 47
-52 60 -127 60 l-68 0 0 -130z m151 81 c21 -16 24 -28 24 -81 0 -78 -21 -100
-96 -100 l-49 0 0 100 0 100 49 0 c33 0 56 -6 72 -19z"/>
<path d="M5000 715 c0 -8 7 -15 15 -15 8 0 15 7 15 15 0 8 -7 15 -15 15 -8 0
-15 -7 -15 -15z"/>
<path d="M5790 686 l0 -44 -29 11 c-75 28 -128 -61 -86 -143 18 -34 56 -47 91
-31 15 6 24 7 24 1 0 -6 7 -10 15 -10 13 0 15 21 15 130 0 109 -2 130 -15 130
-11 0 -15 -12 -15 -44z m-18 -73 c36 -32 15 -113 -29 -113 -28 0 -53 31 -53
66 0 56 44 82 82 47z"/>
<path d="M5960 600 c0 -109 2 -130 15 -130 8 0 15 4 15 10 0 6 9 5 24 -1 35
-16 73 -3 91 31 42 82 -11 171 -86 143 l-29 -11 0 44 c0 32 -4 44 -15 44 -13
0 -15 -21 -15 -130z m112 13 c36 -32 13 -113 -33 -113 -45 0 -66 74 -32 112
20 22 41 23 65 1z"/>
<path d="M6440 600 c0 -109 2 -130 15 -130 12 0 15 13 15 55 l0 55 55 0 c46 0
60 4 80 25 34 33 33 77 -1 104 -21 17 -41 21 -95 21 l-69 0 0 -130z m148 88
c18 -18 14 -56 -7 -68 -11 -5 -40 -10 -65 -10 l-46 0 0 45 0 45 53 0 c29 0 58
-5 65 -12z"/>
<path d="M7077 713 c-4 -3 -7 -17 -7 -30 0 -14 -6 -23 -15 -23 -8 0 -15 -7
-15 -15 0 -8 7 -15 15 -15 12 0 15 -14 15 -68 0 -40 5 -73 12 -80 17 -17 58
-15 58 3 0 8 -9 15 -20 15 -18 0 -20 7 -20 65 0 58 2 65 20 65 11 0 20 7 20
15 0 8 -9 15 -20 15 -16 0 -20 7 -20 30 0 29 -9 38 -23 23z"/>
<path d="M4650 640 c-25 -25 -34 -61 -26 -105 13 -66 85 -87 134 -38 29 29 14
47 -17 19 -23 -21 -54 -20 -74 2 -31 34 -21 42 48 42 63 0 65 1 65 25 0 61
-87 98 -130 55z m88 -22 c22 -22 13 -28 -38 -28 -51 0 -64 11 -32 29 23 14 55
14 70 -1z"/>
<path d="M4830 642 c-17 -14 -21 -25 -17 -44 7 -26 34 -41 95 -53 17 -4 32
-13 32 -20 0 -27 -69 -35 -90 -10 -14 17 -40 20 -40 6 0 -19 54 -51 86 -51 55
0 97 59 62 88 -7 5 -35 16 -63 24 -31 8 -50 19 -50 28 0 20 51 25 82 9 32 -17
43 -1 14 22 -29 24 -82 24 -111 1z"/>
<path d="M5000 565 c0 -78 3 -95 15 -95 12 0 15 17 15 95 0 78 -3 95 -15 95
-12 0 -15 -17 -15 -95z"/>
<path d="M5112 653 c-18 -7 -42 -57 -42 -88 0 -33 24 -81 45 -89 26 -10 60 -7
73 6 9 9 12 8 12 -8 0 -11 -5 -25 -12 -32 -17 -17 -63 -15 -78 3 -16 19 -40
19 -40 1 0 -22 40 -46 78 -46 22 0 41 8 57 25 23 23 25 31 25 130 0 87 -3 105
-15 105 -8 0 -15 -5 -15 -10 0 -7 -6 -7 -19 0 -21 11 -47 12 -69 3z m70 -40
c35 -31 13 -113 -30 -113 -45 0 -69 75 -35 112 20 22 41 23 65 1z"/>
<path d="M5270 565 c0 -78 3 -95 15 -95 12 0 15 14 15 64 0 68 14 96 49 96 31
0 41 -22 41 -92 0 -54 3 -68 15 -68 24 0 21 151 -3 173 -21 19 -54 22 -83 7
-13 -7 -19 -7 -19 0 0 5 -7 10 -15 10 -12 0 -15 -17 -15 -95z"/>
<path d="M5490 640 c-25 -25 -34 -61 -26 -105 13 -66 85 -87 134 -38 29 29 14
47 -17 19 -23 -21 -54 -20 -74 2 -31 34 -21 42 48 42 63 0 65 1 65 25 0 61
-87 98 -130 55z m88 -22 c22 -22 13 -28 -38 -28 -51 0 -64 11 -32 29 23 14 55
14 70 -1z"/>
<path d="M6169 583 c16 -43 32 -86 36 -95 8 -21 -11 -58 -30 -58 -8 0 -15 -7
-15 -15 0 -21 33 -19 53 3 17 19 100 233 93 240 -14 13 -34 -13 -55 -74 l-24
-68 -27 70 c-16 43 -32 70 -43 72 -15 3 -13 -7 12 -75z"/>
<path d="M6670 565 c0 -78 3 -95 15 -95 12 0 15 14 15 64 0 68 14 96 49 96 31
0 41 -22 41 -92 0 -54 3 -68 15 -68 24 0 21 151 -3 173 -21 19 -54 22 -83 7
-13 -7 -19 -7 -19 0 0 5 -7 10 -15 10 -12 0 -15 -17 -15 -95z"/>
<path d="M6902 653 c-18 -7 -42 -57 -42 -88 0 -33 24 -81 45 -89 26 -10 60 -7
73 6 9 9 12 8 12 -8 0 -11 -5 -25 -12 -32 -17 -17 -63 -15 -78 3 -16 19 -40
19 -40 1 0 -22 40 -46 78 -46 22 0 41 8 57 25 23 23 25 31 25 130 0 87 -3 105
-15 105 -8 0 -15 -5 -15 -10 0 -7 -6 -7 -19 0 -21 11 -47 12 -69 3z m70 -40
c35 -31 13 -113 -30 -113 -45 0 -69 75 -35 112 20 22 41 23 65 1z"/>
<path d="M7160 565 c0 -78 3 -95 15 -95 12 0 15 14 15 63 0 66 12 93 44 99 11
1 21 9 24 16 5 16 -40 16 -56 0 -9 -9 -12 -9 -12 0 0 7 -7 12 -15 12 -12 0
-15 -17 -15 -95z"/>
<path d="M7310 640 c-25 -25 -34 -61 -26 -105 13 -66 85 -87 134 -38 29 29 14
47 -17 19 -23 -21 -54 -20 -74 2 -31 34 -21 42 48 42 63 0 65 1 65 25 0 61
-87 98 -130 55z m88 -22 c22 -22 13 -28 -38 -28 -51 0 -64 11 -32 29 23 14 55
14 70 -1z"/>
<path d="M7510 640 c-25 -25 -34 -61 -26 -105 13 -66 85 -87 134 -38 29 29 14
47 -17 19 -23 -21 -54 -20 -74 2 -31 34 -21 42 48 42 63 0 65 1 65 25 0 61
-87 98 -130 55z m88 -22 c22 -22 13 -28 -38 -28 -51 0 -64 11 -32 29 23 14 55
14 70 -1z"/>
</g>
</svg>
